# xmcd CD database file
#
# Track frame offsets:
#	150
#	11450
#	38873
#	52689
#	64745
#	79316
#	92945
#	107603
#	124372
#	135062
#	143524
#	155727
#	166577
#	179562
#	192919
#	218620
#	233736
#	278050
#
# Disc length: 3881 seconds
#
# Revision: 0
# Processed by: cddbd v1.5.1PL2 Copyright (c) Steve Scherf et al.
# Submitted via: CDex 1.51
#
DISCID=e90f2712
DTITLE=AA.VV. - Essential Performers - CD2
DYEAR=2005
DGENRE=Blues
TTITLE0=Bing Crosby - Swinging on a star
TTITLE1=Louis Armstrong - Hello Dolly
TTITLE2=Frank Sinatra - Night and day
TTITLE3=Perry Como/Russ Case and Orch. - Love me or leave me
TTITLE4=Billie Holiday - Fine and mellow
TTITLE5=Ella Fitzgerald - Sing song swim
TTITLE6=Glenn Miller - Pennsylvania 6-5000
TTITLE7=Roy Orbison - Oh pretty woman
TTITLE8=Little Richard - Tutti frutti
TTITLE9=Jerry Lee Lewis - Great balls of fire
TTITLE10=Johnny Cash - I walk the line
TTITLE11=Dolly Parton - It was'nt God who made Honky Tonk angels
TTITLE12=Kenny Roger and The First Edition - Ruby, don't take your love to town
TTITLE13=Percy Sledge - My special prayer
TTITLE14=Bob Marley and the Wailers - Natural mystic
TTITLE15=Shirley Bassey - Yesterday
TTITLE16=Santana - Jingo
TTITLE17=Ike and Tina Turner - Nutbush city limit
EXTD=YEAR: 2005
EXTT0=
EXTT1=
EXTT2=
EXTT3=
EXTT4=
EXTT5=
EXTT6=
EXTT7=
EXTT8=
EXTT9=
EXTT10=
EXTT11=
EXTT12=
EXTT13=
EXTT14=
EXTT15=
EXTT16=
EXTT17=
PLAYORDER=
